<?xml version="1.0" encoding="utf-8"?>
<svg version="1.1" id="Lager_1" xmlns="http://www.w3.org/2000/svg" xmlns:xlink="http://www.w3.org/1999/xlink" x="0px" y="0px"
	 viewBox="0 0 343 73" style="enable-background:new 0 0 343 73;" xml:space="preserve">
<style type="text/css">
	.st0{fill:#FFFFFF;}
</style>
<g>
	<path class="st0" d="M57.06,39.36c-0.89-1.01-2.02-1.84-3.4-2.48c0.9-0.55,1.65-1.23,2.26-2.06c0.93-1.27,1.39-2.84,1.39-4.73
		c0-2.56-0.94-4.48-2.83-5.77c-1.89-1.29-4.43-1.94-7.62-1.94h-9v30.66h10.2c1.37,0,2.68-0.16,3.96-0.48
		c1.28-0.32,2.42-0.83,3.44-1.54c1.01-0.71,1.82-1.64,2.42-2.79c0.59-1.15,0.89-2.56,0.89-4.23C58.77,42.2,58.2,40.65,57.06,39.36z
		 M43.9,28.21h3.25c1.19,0,2.14,0.27,2.85,0.79c0.71,0.53,1.06,1.32,1.06,2.38c0,0.91-0.28,1.73-0.85,2.46
		c-0.57,0.72-1.45,1.08-2.64,1.08H43.9V28.21z M51.9,45.94c-0.42,0.51-0.99,0.89-1.71,1.12c-0.72,0.24-1.53,0.36-2.42,0.36H43.9
		v-6.67h3.46c0.86,0,1.68,0.09,2.48,0.27c0.79,0.18,1.43,0.5,1.93,0.96s0.75,1.13,0.75,2.02C52.52,44.78,52.31,45.42,51.9,45.94z"/>
	<path class="st0" d="M92.6,22.38v30.66h-6.04V40.58H72.85v12.46h-6.04V22.38h6.04v12.37h13.71V22.38H92.6z"/>
	<path class="st0" d="M118.95,41.9c0.98-0.56,1.79-1.23,2.45-2.02c0.85-1.03,1.46-2.17,1.83-3.42c0.38-1.25,0.57-2.5,0.57-3.75
		c0-1.58-0.27-3-0.8-4.27c-0.52-1.26-1.29-2.34-2.31-3.25c-1.01-0.9-2.27-1.59-3.77-2.08s-3.21-0.73-5.12-0.73h-9.29v30.66h6.04
		v-9.75h4.02l6.48,9.75h7.04L118.95,41.9z M108.55,28.21h4.33c1.06,0,1.9,0.18,2.52,0.54c0.63,0.37,1.09,0.81,1.4,1.34
		c0.3,0.53,0.5,1.05,0.6,1.56c0.1,0.51,0.15,0.94,0.15,1.27c0,0.44-0.08,0.92-0.23,1.44c-0.15,0.51-0.4,1-0.75,1.48
		c-0.35,0.47-0.83,0.86-1.44,1.16c-0.61,0.31-1.37,0.46-2.29,0.46h-4.29V28.21z"/>
	<path class="st0" d="M130.17,37.75c0-2.11,0.4-4.11,1.21-6c0.81-1.89,1.92-3.56,3.35-5.02c1.43-1.46,3.09-2.6,4.98-3.44
		c1.89-0.83,3.92-1.25,6.08-1.25c2.14,0,4.15,0.42,6.04,1.25c1.89,0.83,3.56,1.98,5.02,3.44s2.6,3.13,3.42,5.02
		c0.82,1.89,1.23,3.89,1.23,6c0,2.17-0.41,4.19-1.23,6.08c-0.82,1.89-1.96,3.55-3.42,4.98c-1.46,1.43-3.13,2.55-5.02,3.35
		c-1.89,0.81-3.9,1.21-6.04,1.21c-2.17,0-4.19-0.4-6.08-1.21c-1.89-0.8-3.55-1.92-4.98-3.35c-1.43-1.43-2.55-3.09-3.35-4.98
		C130.57,41.95,130.17,39.92,130.17,37.75z M136.42,37.75c0,1.36,0.24,2.63,0.73,3.81c0.49,1.18,1.17,2.22,2.04,3.12
		c0.87,0.9,1.89,1.6,3.04,2.1c1.15,0.5,2.41,0.75,3.77,0.75c1.31,0,2.52-0.25,3.65-0.75c1.12-0.5,2.1-1.2,2.94-2.1
		c0.83-0.9,1.49-1.94,1.96-3.12c0.47-1.18,0.71-2.45,0.71-3.81c0-1.39-0.24-2.68-0.73-3.87c-0.49-1.19-1.15-2.24-2-3.14
		c-0.85-0.9-1.84-1.6-2.98-2.1c-1.14-0.5-2.37-0.75-3.71-0.75s-2.57,0.25-3.71,0.75c-1.14,0.5-2.14,1.2-3,2.1
		c-0.86,0.9-1.53,1.95-2,3.14C136.65,35.07,136.42,36.36,136.42,37.75z"/>
	<polygon class="st0" points="201.11,21.13 201.11,53.04 195.07,53.04 195.07,38.42 185.07,52.62 184.99,52.62 175.37,39.33 
		175.37,53.04 169.53,53.04 169.53,21.13 169.58,21.13 185.13,43.19 201.03,21.13 	"/>
	<path class="st0" d="M221.73,21.17h-0.33l-13.83,31.87h5.95l2.5-6h10.18l2.36,6h7L221.73,21.17z M218.13,41.96l3.12-7.48l2.94,7.48
		H218.13z"/>
	<path class="st0" d="M238.06,37.75c0-2.11,0.4-4.11,1.21-6c0.8-1.89,1.92-3.56,3.35-5.02c1.43-1.46,3.09-2.6,4.98-3.44
		c1.89-0.83,3.92-1.25,6.08-1.25c2.14,0,4.15,0.42,6.04,1.25c1.89,0.83,3.56,1.98,5.02,3.44s2.6,3.13,3.42,5.02
		c0.82,1.89,1.23,3.89,1.23,6c0,2.17-0.41,4.19-1.23,6.08c-0.82,1.89-1.96,3.55-3.42,4.98c-1.46,1.43-3.13,2.55-5.02,3.35
		c-1.89,0.81-3.9,1.21-6.04,1.21c-2.17,0-4.19-0.4-6.08-1.21c-1.89-0.8-3.55-1.92-4.98-3.35c-1.43-1.43-2.55-3.09-3.35-4.98
		C238.46,41.95,238.06,39.92,238.06,37.75z M244.31,37.75c0,1.36,0.24,2.63,0.73,3.81c0.49,1.18,1.17,2.22,2.04,3.12
		c0.88,0.9,1.89,1.6,3.04,2.1c1.15,0.5,2.41,0.75,3.77,0.75c1.31,0,2.52-0.25,3.65-0.75c1.12-0.5,2.1-1.2,2.94-2.1
		c0.83-0.9,1.49-1.94,1.96-3.12c0.47-1.18,0.71-2.45,0.71-3.81c0-1.39-0.24-2.68-0.73-3.87c-0.49-1.19-1.15-2.24-2-3.14
		c-0.85-0.9-1.84-1.6-2.98-2.1c-1.14-0.5-2.37-0.75-3.71-0.75s-2.57,0.25-3.71,0.75c-1.14,0.5-2.14,1.2-3,2.1
		c-0.86,0.9-1.53,1.95-2,3.14C244.54,35.07,244.31,36.36,244.31,37.75z"/>
	<polygon class="st0" points="305.04,22.38 305.04,54.29 304.88,54.29 283.42,34.91 283.55,53.04 277.42,53.04 277.42,21.17 
		277.67,21.17 299.09,40.85 298.96,22.38 	"/>
</g>
</svg>
