<?xml version="1.0" encoding="utf-8"?>
<svg version="1.1" id="Lager_1" xmlns="http://www.w3.org/2000/svg" xmlns:xlink="http://www.w3.org/1999/xlink" x="0px" y="0px"
	 viewBox="0 0 343 97" style="enable-background:new 0 0 343 97;" xml:space="preserve">
<style type="text/css">
	.st0{fill:#FFFFFF;}
</style>
<g>
	<path class="st0" d="M57.06,39.36c-0.89-1.01-2.02-1.84-3.4-2.48c0.9-0.55,1.65-1.23,2.26-2.06c0.93-1.27,1.39-2.84,1.39-4.73
		c0-2.56-0.94-4.48-2.83-5.77c-1.89-1.29-4.43-1.94-7.62-1.94h-9v30.66h10.2c1.37,0,2.68-0.16,3.96-0.48
		c1.28-0.32,2.42-0.83,3.44-1.54c1.01-0.71,1.82-1.64,2.42-2.79c0.59-1.15,0.89-2.56,0.89-4.23C58.77,42.2,58.2,40.65,57.06,39.36z
		 M43.9,28.21h3.25c1.19,0,2.14,0.27,2.85,0.79c0.71,0.53,1.06,1.32,1.06,2.38c0,0.91-0.28,1.73-0.85,2.46
		c-0.57,0.72-1.45,1.08-2.64,1.08H43.9V28.21z M51.9,45.94c-0.42,0.51-0.99,0.89-1.71,1.12c-0.72,0.24-1.53,0.36-2.42,0.36H43.9
		v-6.67h3.46c0.86,0,1.68,0.09,2.48,0.27c0.79,0.18,1.43,0.5,1.93,0.96s0.75,1.13,0.75,2.02C52.52,44.78,52.31,45.42,51.9,45.94z"/>
	<path class="st0" d="M92.6,22.38v30.66h-6.04V40.58H72.85v12.46h-6.04V22.38h6.04v12.37h13.71V22.38H92.6z"/>
	<path class="st0" d="M118.95,41.9c0.98-0.56,1.79-1.23,2.45-2.02c0.85-1.03,1.46-2.17,1.83-3.42c0.38-1.25,0.57-2.5,0.57-3.75
		c0-1.58-0.27-3-0.8-4.27c-0.52-1.26-1.29-2.34-2.31-3.25c-1.01-0.9-2.27-1.59-3.77-2.08s-3.21-0.73-5.12-0.73h-9.29v30.66h6.04
		v-9.75h4.02l6.48,9.75h7.04L118.95,41.9z M108.55,28.21h4.33c1.06,0,1.9,0.18,2.52,0.54c0.63,0.37,1.09,0.81,1.4,1.34
		c0.3,0.53,0.5,1.05,0.6,1.56c0.1,0.51,0.15,0.94,0.15,1.27c0,0.44-0.08,0.92-0.23,1.44c-0.15,0.51-0.4,1-0.75,1.48
		c-0.35,0.47-0.83,0.86-1.44,1.16c-0.61,0.31-1.37,0.46-2.29,0.46h-4.29V28.21z"/>
	<path class="st0" d="M130.17,37.75c0-2.11,0.4-4.11,1.21-6c0.81-1.89,1.92-3.56,3.35-5.02c1.43-1.46,3.09-2.6,4.98-3.44
		c1.89-0.83,3.92-1.25,6.08-1.25c2.14,0,4.15,0.42,6.04,1.25c1.89,0.83,3.56,1.98,5.02,3.44s2.6,3.13,3.42,5.02
		c0.82,1.89,1.23,3.89,1.23,6c0,2.17-0.41,4.19-1.23,6.08c-0.82,1.89-1.96,3.55-3.42,4.98c-1.46,1.43-3.13,2.55-5.02,3.35
		c-1.89,0.81-3.9,1.21-6.04,1.21c-2.17,0-4.19-0.4-6.08-1.21c-1.89-0.8-3.55-1.92-4.98-3.35c-1.43-1.43-2.55-3.09-3.35-4.98
		C130.57,41.95,130.17,39.92,130.17,37.75z M136.42,37.75c0,1.36,0.24,2.63,0.73,3.81c0.49,1.18,1.17,2.22,2.04,3.12
		c0.87,0.9,1.89,1.6,3.04,2.1c1.15,0.5,2.41,0.75,3.77,0.75c1.31,0,2.52-0.25,3.65-0.75c1.12-0.5,2.1-1.2,2.94-2.1
		c0.83-0.9,1.49-1.94,1.96-3.12c0.47-1.18,0.71-2.45,0.71-3.81c0-1.39-0.24-2.68-0.73-3.87c-0.49-1.19-1.15-2.24-2-3.14
		c-0.85-0.9-1.84-1.6-2.98-2.1c-1.14-0.5-2.37-0.75-3.71-0.75s-2.57,0.25-3.71,0.75c-1.14,0.5-2.14,1.2-3,2.1
		c-0.86,0.9-1.53,1.95-2,3.14C136.65,35.07,136.42,36.36,136.42,37.75z"/>
	<polygon class="st0" points="201.11,21.13 201.11,53.04 195.07,53.04 195.07,38.42 185.07,52.62 184.99,52.62 175.37,39.33 
		175.37,53.04 169.53,53.04 169.53,21.13 169.58,21.13 185.13,43.19 201.03,21.13 	"/>
	<path class="st0" d="M221.73,21.17h-0.33l-13.83,31.87h5.95l2.5-6h10.18l2.36,6h7L221.73,21.17z M218.13,41.96l3.12-7.48l2.94,7.48
		H218.13z"/>
	<path class="st0" d="M238.06,37.75c0-2.11,0.4-4.11,1.21-6c0.8-1.89,1.92-3.56,3.35-5.02c1.43-1.46,3.09-2.6,4.98-3.44
		c1.89-0.83,3.92-1.25,6.08-1.25c2.14,0,4.15,0.42,6.04,1.25c1.89,0.83,3.56,1.98,5.02,3.44s2.6,3.13,3.42,5.02
		c0.82,1.89,1.23,3.89,1.23,6c0,2.17-0.41,4.19-1.23,6.08c-0.82,1.89-1.96,3.55-3.42,4.98c-1.46,1.43-3.13,2.55-5.02,3.35
		c-1.89,0.81-3.9,1.21-6.04,1.21c-2.17,0-4.19-0.4-6.08-1.21c-1.89-0.8-3.55-1.92-4.98-3.35c-1.43-1.43-2.55-3.09-3.35-4.98
		C238.46,41.95,238.06,39.92,238.06,37.75z M244.31,37.75c0,1.36,0.24,2.63,0.73,3.81c0.49,1.18,1.17,2.22,2.04,3.12
		c0.88,0.9,1.89,1.6,3.04,2.1c1.15,0.5,2.41,0.75,3.77,0.75c1.31,0,2.52-0.25,3.65-0.75c1.12-0.5,2.1-1.2,2.94-2.1
		c0.83-0.9,1.49-1.94,1.96-3.12c0.47-1.18,0.71-2.45,0.71-3.81c0-1.39-0.24-2.68-0.73-3.87c-0.49-1.19-1.15-2.24-2-3.14
		c-0.85-0.9-1.84-1.6-2.98-2.1c-1.14-0.5-2.37-0.75-3.71-0.75s-2.57,0.25-3.71,0.75c-1.14,0.5-2.14,1.2-3,2.1
		c-0.86,0.9-1.53,1.95-2,3.14C244.54,35.07,244.31,36.36,244.31,37.75z"/>
	<polygon class="st0" points="305.04,22.38 305.04,54.29 304.88,54.29 283.42,34.91 283.55,53.04 277.42,53.04 277.42,21.17 
		277.67,21.17 299.09,40.85 298.96,22.38 	"/>
</g>
<g>
	<path class="st0" d="M37.94,65.93c-0.46-0.23-0.96-0.44-1.5-0.61s-1.07-0.26-1.59-0.26c-0.72,0-1.29,0.17-1.71,0.5
		s-0.64,0.78-0.64,1.33c0,0.42,0.14,0.77,0.42,1.06c0.28,0.29,0.63,0.54,1.07,0.75c0.44,0.21,0.9,0.41,1.4,0.59
		c0.41,0.15,0.81,0.32,1.22,0.53s0.77,0.45,1.1,0.75c0.33,0.3,0.59,0.66,0.78,1.09c0.19,0.43,0.29,0.96,0.29,1.59
		c0,0.72-0.18,1.36-0.53,1.94c-0.35,0.58-0.85,1.04-1.51,1.37c-0.65,0.33-1.44,0.5-2.35,0.5c-0.58,0-1.14-0.07-1.67-0.19
		c-0.54-0.13-1.03-0.31-1.49-0.53c-0.46-0.22-0.86-0.45-1.22-0.68l0.8-1.41c0.3,0.21,0.63,0.41,1.02,0.6
		c0.38,0.19,0.78,0.34,1.2,0.45c0.42,0.11,0.83,0.17,1.22,0.17c0.43,0,0.85-0.07,1.26-0.22c0.41-0.15,0.75-0.38,1.02-0.7
		c0.27-0.32,0.41-0.75,0.41-1.28c0-0.44-0.12-0.82-0.36-1.13c-0.24-0.31-0.55-0.57-0.94-0.79c-0.39-0.22-0.81-0.41-1.27-0.58
		c-0.43-0.15-0.86-0.32-1.29-0.52c-0.43-0.2-0.82-0.43-1.18-0.71s-0.66-0.62-0.89-1.03s-0.34-0.9-0.34-1.48
		c0-0.7,0.17-1.32,0.51-1.84c0.34-0.52,0.8-0.94,1.4-1.24c0.59-0.3,1.27-0.47,2.03-0.49c0.86,0,1.62,0.1,2.28,0.31
		s1.24,0.46,1.75,0.76L37.94,65.93z"/>
	<path class="st0" d="M52.99,69.26l-0.12,1.22c-0.24-0.4-0.59-0.75-1.05-1.04c-0.5-0.33-1.11-0.49-1.82-0.49
		c-0.72,0-1.38,0.16-1.98,0.5c-0.61,0.33-1.09,0.8-1.44,1.42c-0.36,0.62-0.54,1.36-0.54,2.22c0,0.86,0.17,1.59,0.52,2.19
		c0.34,0.6,0.81,1.05,1.39,1.36c0.59,0.31,1.24,0.46,1.95,0.46c0.46,0,0.87-0.06,1.22-0.19c0.36-0.13,0.67-0.29,0.94-0.49
		c0.26-0.2,0.48-0.39,0.66-0.58c0.05-0.06,0.1-0.12,0.14-0.17v1.25h1.72v-7.66H52.99z M52.86,73.72c-0.08,0.39-0.24,0.74-0.47,1.03
		c-0.23,0.3-0.51,0.53-0.86,0.69c-0.34,0.16-0.73,0.24-1.16,0.24c-0.46,0-0.89-0.12-1.28-0.35c-0.39-0.24-0.71-0.56-0.94-0.96
		c-0.24-0.41-0.35-0.86-0.35-1.35c0-0.53,0.11-1,0.34-1.39c0.23-0.4,0.53-0.7,0.91-0.93c0.39-0.22,0.81-0.33,1.28-0.33
		c0.41,0,0.78,0.08,1.13,0.23c0.34,0.16,0.64,0.37,0.89,0.65c0.24,0.28,0.41,0.6,0.51,0.97V73.72z"/>
	<path class="st0" d="M63.55,76.92V70.8h-1.33v-1.55h1.33v-3.22c0-1.11,0.25-1.96,0.75-2.55s1.24-0.89,2.23-0.89
		c0.26,0,0.54,0.04,0.85,0.11c0.31,0.07,0.58,0.2,0.81,0.37l-0.72,1.24c-0.1-0.11-0.22-0.19-0.35-0.23
		c-0.14-0.04-0.28-0.06-0.43-0.06c-0.46,0-0.81,0.15-1.05,0.46c-0.25,0.31-0.37,0.84-0.37,1.59v3.18h2.42v1.55h-2.42v6.12H63.55z"/>
	<path class="st0" d="M79.45,75.44c-0.31,0.12-0.64,0.18-0.97,0.18c-0.49,0-0.94-0.11-1.32-0.34c-0.36-0.21-0.65-0.5-0.86-0.87
		l6.06-2.13c-0.24-1.04-0.7-1.85-1.37-2.45c-0.66-0.59-1.5-0.88-2.51-0.88c-0.79,0-1.51,0.18-2.15,0.55
		c-0.64,0.37-1.15,0.87-1.54,1.48c-0.39,0.62-0.58,1.3-0.58,2.05c0,0.79,0.17,1.49,0.51,2.1c0.35,0.61,0.84,1.09,1.47,1.45
		c0.62,0.35,1.38,0.52,2.25,0.52c0.46,0,0.92-0.08,1.4-0.24c0.47-0.16,0.9-0.37,1.28-0.63l-0.77-1.27
		C80.06,75.16,79.76,75.32,79.45,75.44z M75.96,73.36c-0.02-0.14-0.03-0.28-0.03-0.42c0-0.52,0.1-0.97,0.31-1.36
		c0.21-0.39,0.5-0.69,0.86-0.91c0.36-0.22,0.78-0.34,1.25-0.34c0.55,0,1,0.15,1.35,0.45c0.31,0.26,0.54,0.58,0.69,0.94L75.96,73.36z
		"/>
	<path class="st0" d="M100.5,63.55h8.9v1.72h-3.59v11.65h-1.79V65.27h-3.51V63.55z"/>
	<path class="st0" d="M120.81,68.95l-0.07,1.74c-0.59-0.05-1.11,0.05-1.55,0.32c-0.43,0.26-0.78,0.61-1.03,1.03
		c-0.26,0.43-0.38,0.89-0.38,1.38v3.5h-1.72v-7.66h1.55l0.14,1.81c0.19-0.42,0.47-0.78,0.81-1.09c0.37-0.33,0.76-0.58,1.18-0.76
		C120.16,69.05,120.52,68.96,120.81,68.95z"/>
	<path class="st0" d="M134.48,69.26l-0.13,1.22c-0.24-0.4-0.59-0.75-1.04-1.04c-0.5-0.33-1.11-0.49-1.83-0.49
		c-0.71,0-1.37,0.16-1.98,0.5c-0.6,0.33-1.08,0.8-1.44,1.42s-0.53,1.36-0.53,2.22c0,0.86,0.17,1.59,0.51,2.19
		c0.35,0.6,0.81,1.05,1.4,1.36c0.59,0.31,1.24,0.46,1.95,0.46c0.46,0,0.86-0.06,1.22-0.19s0.67-0.29,0.94-0.49
		c0.26-0.2,0.48-0.39,0.65-0.58c0.06-0.06,0.11-0.12,0.15-0.18v1.26h1.72v-7.66H134.48z M134.35,73.72
		c-0.09,0.39-0.24,0.74-0.47,1.03c-0.23,0.3-0.52,0.53-0.86,0.69c-0.35,0.16-0.74,0.24-1.17,0.24c-0.45,0-0.88-0.12-1.27-0.35
		c-0.4-0.24-0.71-0.56-0.95-0.96c-0.23-0.41-0.35-0.86-0.35-1.35c0-0.53,0.12-1,0.34-1.39c0.23-0.4,0.54-0.7,0.92-0.93
		c0.38-0.22,0.81-0.33,1.28-0.33c0.4,0,0.78,0.08,1.12,0.23c0.35,0.16,0.65,0.37,0.89,0.65c0.25,0.28,0.42,0.6,0.52,0.97V73.72z"/>
	<polygon class="st0" points="151.7,69.26 147.61,77.14 147.52,77.14 143.26,69.26 145.32,69.26 147.62,74.16 149.77,69.26 	"/>
	<path class="st0" d="M163.28,75.44c-0.31,0.12-0.63,0.18-0.97,0.18c-0.49,0-0.93-0.11-1.32-0.34c-0.36-0.21-0.65-0.5-0.86-0.87
		l6.07-2.13c-0.25-1.04-0.71-1.85-1.37-2.45c-0.67-0.59-1.51-0.88-2.52-0.88c-0.79,0-1.5,0.18-2.14,0.55
		c-0.64,0.37-1.16,0.87-1.55,1.48c-0.38,0.62-0.58,1.3-0.58,2.05c0,0.79,0.17,1.49,0.52,2.1c0.34,0.61,0.83,1.09,1.46,1.45
		c0.63,0.35,1.38,0.52,2.26,0.52c0.45,0,0.92-0.08,1.39-0.24c0.48-0.16,0.91-0.37,1.29-0.63l-0.78-1.27
		C163.9,75.16,163.6,75.32,163.28,75.44z M159.79,73.36c-0.02-0.14-0.03-0.28-0.03-0.42c0-0.52,0.11-0.97,0.32-1.36
		c0.21-0.39,0.49-0.69,0.86-0.91c0.36-0.22,0.78-0.34,1.24-0.34c0.56,0,1.01,0.15,1.35,0.45c0.32,0.26,0.55,0.58,0.69,0.94
		L159.79,73.36z"/>
	<path class="st0" d="M173.69,62.6h1.74v14.31h-1.74V62.6z"/>
	<path class="st0" d="M200,62.99h-0.11l-5.82,13.93h1.77l1.43-3.52h5.15l1.38,3.52h2.05L200,62.99z M197.91,71.85l1.98-4.87
		l1.92,4.87H197.91z"/>
	<path class="st0" d="M220.53,71.26v5.66h-1.73v-5.07c-0.02-0.41-0.14-0.74-0.37-1.01c-0.22-0.26-0.58-0.39-1.06-0.39
		c-0.43,0-0.83,0.12-1.19,0.36c-0.37,0.25-0.65,0.59-0.85,1.02c-0.21,0.43-0.31,0.93-0.31,1.5v3.59h-1.74v-7.66h1.58l0.1,1.5
		c0.24-0.53,0.62-0.96,1.15-1.29c0.56-0.34,1.21-0.51,1.95-0.51c0.71,0,1.3,0.22,1.76,0.64C220.28,70.03,220.52,70.58,220.53,71.26z
		"/>
	<polygon class="st0" points="235.92,69.26 230.98,80.6 229.28,80.6 231.04,76.65 227.49,69.26 229.43,69.26 231.9,74.72 
		234.33,69.26 	"/>
	<polygon class="st0" points="253.75,69.26 250.24,77.38 247.78,72.13 245.52,77.38 241.99,69.26 243.69,69.26 245.73,73.91 
		247.17,70.57 246.54,69.26 248.04,69.26 250.14,74.03 252.07,69.26 	"/>
	<path class="st0" d="M268.19,71.26v5.66h-1.73v-5.07c-0.02-0.41-0.14-0.74-0.37-1.01c-0.22-0.26-0.58-0.39-1.06-0.39
		c-0.43,0-0.83,0.12-1.19,0.37c-0.37,0.26-0.65,0.6-0.85,1.03c-0.21,0.43-0.31,0.93-0.31,1.48v3.59h-1.74V62.6h1.7v8.07
		c0.26-0.48,0.64-0.88,1.16-1.21c0.54-0.33,1.18-0.5,1.91-0.5c0.72,0,1.31,0.22,1.77,0.64C267.94,70.03,268.18,70.58,268.19,71.26z"
		/>
	<path class="st0" d="M281.11,75.44c-0.31,0.12-0.64,0.18-0.97,0.18c-0.49,0-0.93-0.11-1.32-0.34c-0.36-0.21-0.65-0.5-0.86-0.87
		l6.06-2.13c-0.24-1.04-0.7-1.85-1.36-2.45c-0.67-0.59-1.51-0.88-2.52-0.88c-0.79,0-1.5,0.18-2.14,0.55
		c-0.65,0.37-1.16,0.87-1.55,1.48c-0.39,0.62-0.58,1.3-0.58,2.05c0,0.79,0.17,1.49,0.52,2.1c0.34,0.61,0.83,1.09,1.46,1.45
		c0.63,0.35,1.38,0.52,2.25,0.52c0.46,0,0.93-0.08,1.4-0.24s0.9-0.37,1.29-0.63l-0.78-1.27C281.72,75.16,281.43,75.32,281.11,75.44z
		 M277.62,73.36c-0.02-0.14-0.03-0.28-0.03-0.42c0-0.52,0.1-0.97,0.31-1.36c0.21-0.39,0.5-0.69,0.86-0.91
		c0.37-0.22,0.78-0.34,1.25-0.34c0.56,0,1.01,0.15,1.35,0.45c0.32,0.26,0.55,0.58,0.69,0.94L277.62,73.36z"/>
	<path class="st0" d="M296.27,68.95l-0.08,1.74c-0.59-0.05-1.1,0.05-1.54,0.32c-0.44,0.26-0.78,0.61-1.04,1.03
		c-0.25,0.43-0.38,0.89-0.38,1.38v3.5h-1.72v-7.66h1.56l0.13,1.83c0.19-0.43,0.46-0.79,0.81-1.11c0.37-0.33,0.77-0.58,1.19-0.76
		C295.61,69.05,295.97,68.96,296.27,68.95z"/>
	<path class="st0" d="M308.08,75.44c-0.32,0.12-0.64,0.18-0.97,0.18c-0.5,0-0.94-0.11-1.33-0.34c-0.36-0.21-0.65-0.5-0.85-0.87
		l6.06-2.13c-0.25-1.04-0.7-1.85-1.37-2.45c-0.66-0.59-1.5-0.88-2.51-0.88c-0.79,0-1.51,0.18-2.15,0.55
		c-0.64,0.37-1.16,0.87-1.54,1.48c-0.39,0.62-0.59,1.3-0.59,2.05c0,0.79,0.18,1.49,0.52,2.1c0.35,0.61,0.83,1.09,1.46,1.45
		c0.63,0.35,1.38,0.52,2.26,0.52c0.45,0,0.92-0.08,1.39-0.24c0.48-0.16,0.91-0.37,1.29-0.63l-0.78-1.27
		C308.69,75.16,308.39,75.32,308.08,75.44z M304.58,73.36c-0.02-0.14-0.03-0.28-0.03-0.42c0-0.52,0.11-0.97,0.32-1.36
		c0.21-0.39,0.49-0.69,0.86-0.91c0.36-0.22,0.78-0.34,1.25-0.34c0.55,0,1,0.15,1.35,0.45c0.31,0.26,0.54,0.58,0.69,0.94
		L304.58,73.36z"/>
</g>
</svg>
